<?xml version="1.0" encoding="UTF-8" standalone="no"?>
<svg width="88px" height="63px" viewBox="0 0 88 63" version="1.1" xmlns="http://www.w3.org/2000/svg" xmlns:xlink="http://www.w3.org/1999/xlink">
    <!-- Generator: Sketch 41.2 (35397) - http://www.bohemiancoding.com/sketch -->
    <title>logohe</title>
    <desc>Created with Sketch.</desc>
    <defs></defs>
    <g id="Page-1" stroke="none" stroke-width="1" fill="none" fill-rule="evenodd" fill-opacity="0.512709466">
        <g id="logohe" fill="#10FF79">
            <g id="noun_690635_cc">
                <g id="Group">
                    <g transform="translate(0.000000, 0.637820)" id="Shape">
                        <path d="M4.00004,0.0003 C2.00004,0.0503 0.03035,2.1302 4e-05,4.0003 C4e-05,22.6593 -5e-05,31.31011 4e-05,49.96901 C0.00017,51.01661 0.95288,51.96901 2.00004,51.96901 L8.00004,51.96901 C7.99971,52.74831 8.09874,53.54601 8.28129,54.31281 C9.55499,59.66321 14.962922,62.99321 20.312542,61.71901 C24.896492,60.62751 28.008822,56.49861 28.000042,51.96901 C38.414312,51.98001 48.671492,51.99901 60.000042,52.00001 C60.005042,52.77341 60.103692,53.56061 60.281292,54.31251 C61.545492,59.66521 66.960672,62.98321 72.312542,61.71871 C76.901442,60.63471 80.004122,56.49911 80.000042,51.96871 C81.870992,51.96871 83.525342,51.97871 86.000042,51.96871 C87.047202,51.96871 87.999912,51.01631 88.000042,49.96871 L88.000042,32.00001 C87.998042,31.58831 87.865042,31.17841 87.625042,30.84371 L75.625042,13.8437 C75.258502,13.3265 74.633972,13.0022 74.000042,13 L59.000042,13 L59.000042,4 C59.000042,2.0497 56.992712,0.0327 55.000042,0 L4.00004,0 L4.00004,0.0003 Z M59.000042,17.0003 L72.968792,17.0003 L84.000042,32.62531 L84.000042,47.96901 L78.968792,47.96901 C77.404302,44.49171 74.041202,42.00031 70.000042,42.00031 C65.938842,42.00031 62.526362,44.49001 60.968792,48.00031 C48.852232,48.00061 38.056442,47.98031 26.968792,47.96931 C25.404292,44.49171 22.041172,42.00061 18.000042,42.00061 C13.958912,42.00061 10.59579,44.49171 9.03129,47.96931 L4.00004,47.96931 C4.00002,43.64731 4.00004,40.51311 4.00004,37.00061 L57.000042,37.00061 C58.047202,37.00051 58.999912,36.04791 59.000042,35.00061 L59.000042,17.0006 L59.000042,17.0003 Z M61.812542,18.0003 C60.7818415,18.0974629 59.9956003,18.9650395 60.000042,20.0003 L60.000042,32.00031 C60.0001784,33.104823 60.895529,34.0001736 62.000042,34.00031 L79.000042,34.00031 C79.7414088,34.0011215 80.422418,33.5918192 80.7695956,32.9367671 C81.1167732,32.2817151 81.0731685,31.4883675 80.656292,30.87531 L72.656292,18.8753 C72.2833326,18.3271771 71.6630176,17.9994635 71.000042,18.0003 L62.000042,18.0003 C61.9375764,17.9973691 61.8750076,17.9973691 61.812542,18.0003 L61.812542,18.0003 Z M64.000042,22.0003 L69.937542,22.0003 L75.281292,30.00031 L64.000042,30.00031 L64.000042,22.0003 Z M18.000042,46.00031 C20.816042,46.00031 23.000042,47.04961 23.781292,50.46901 C24.000042,55.05081 22.000142,57.04951 19.406292,57.81281 C16.159532,58.58601 12.96056,56.62241 12.18754,53.37531 C11.80865,49.41241 14.000042,46.05001 18.000042,46.00031 Z M70.000042,46.00031 C73.000042,46.05031 75.000042,48.04961 75.906292,50.84401 C76.519242,54.00741 74.541182,57.06491 71.375042,57.81281 C68.126922,58.58021 64.923552,56.62381 64.156292,53.37531 C63.000042,49.04941 66.948282,46.18181 70.000042,46.00031 Z"></path>
                    </g>
                </g>
            </g>
        </g>
    </g>
</svg>